<svg xmlns="http://www.w3.org/2000/svg" width="16" height="16" viewBox="0 0 16 16" shape-rendering="crispEdges"><rect x="7" y="2" width="1" height="1" fill="#e7b93f"/><rect x="7" y="3" width="1" height="1" fill="#e7b93f"/><rect x="7" y="4" width="1" height="1" fill="#e7b93f"/><rect x="7" y="5" width="1" height="1" fill="#e7b93f"/><rect x="6" y="6" width="1" height="1" fill="#6f5315"/><rect x="7" y="6" width="1" height="1" fill="#6f5315"/><rect x="8" y="6" width="1" height="1" fill="#6f5315"/><rect x="5" y="7" width="1" height="1" fill="#6f5315"/><rect x="6" y="7" width="1" height="1" fill="#fff4bf"/><rect x="7" y="7" width="1" height="1" fill="#fff4bf"/><rect x="8" y="7" width="1" height="1" fill="#fff4bf"/><rect x="9" y="7" width="1" height="1" fill="#6f5315"/><rect x="1" y="8" width="1" height="1" fill="#e7b93f"/><rect x="2" y="8" width="1" height="1" fill="#e7b93f"/><rect x="3" y="8" width="1" height="1" fill="#e7b93f"/><rect x="4" y="8" width="1" height="1" fill="#e7b93f"/><rect x="5" y="8" width="1" height="1" fill="#6f5315"/><rect x="6" y="8" width="1" height="1" fill="#fff4bf"/><rect x="7" y="8" width="1" height="1" fill="#fff4bf"/><rect x="8" y="8" width="1" height="1" fill="#fff4bf"/><rect x="9" y="8" width="1" height="1" fill="#6f5315"/><rect x="10" y="8" width="1" height="1" fill="#e7b93f"/><rect x="11" y="8" width="1" height="1" fill="#e7b93f"/><rect x="12" y="8" width="1" height="1" fill="#e7b93f"/><rect x="13" y="8" width="1" height="1" fill="#e7b93f"/><rect x="5" y="9" width="1" height="1" fill="#6f5315"/><rect x="6" y="9" width="1" height="1" fill="#fff4bf"/><rect x="7" y="9" width="1" height="1" fill="#fff4bf"/><rect x="8" y="9" width="1" height="1" fill="#fff4bf"/><rect x="9" y="9" width="1" height="1" fill="#6f5315"/><rect x="6" y="10" width="1" height="1" fill="#6f5315"/><rect x="7" y="10" width="1" height="1" fill="#6f5315"/><rect x="8" y="10" width="1" height="1" fill="#6f5315"/><rect x="7" y="11" width="1" height="1" fill="#e7b93f"/><rect x="7" y="12" width="1" height="1" fill="#e7b93f"/><rect x="7" y="13" width="1" height="1" fill="#e7b93f"/><rect x="7" y="14" width="1" height="1" fill="#e7b93f"/></svg>