<svg xmlns="http://www.w3.org/2000/svg" width="16" height="16" viewBox="0 0 16 16" shape-rendering="crispEdges"><rect x="3" y="4" width="1" height="1" fill="#ffe066"/><rect x="14" y="5" width="1" height="1" fill="#9f7aea"/><rect x="11" y="6" width="1" height="1" fill="#9f7aea"/><rect x="13" y="6" width="1" height="1" fill="#9f7aea"/><rect x="2" y="7" width="1" height="1" fill="#4a3b8f"/><rect x="3" y="7" width="1" height="1" fill="#4a3b8f"/><rect x="4" y="7" width="1" height="1" fill="#4a3b8f"/><rect x="5" y="7" width="1" height="1" fill="#4a3b8f"/><rect x="11" y="7" width="1" height="1" fill="#9f7aea"/><rect x="12" y="7" width="1" height="1" fill="#9f7aea"/><rect x="2" y="8" width="1" height="1" fill="#9f7aea"/><rect x="3" y="8" width="1" height="1" fill="#9f7aea"/><rect x="4" y="8" width="1" height="1" fill="#9f7aea"/><rect x="5" y="8" width="1" height="1" fill="#9f7aea"/><rect x="6" y="8" width="1" height="1" fill="#9f7aea"/><rect x="7" y="8" width="1" height="1" fill="#9f7aea"/><rect x="8" y="8" width="1" height="1" fill="#9f7aea"/><rect x="9" y="8" width="1" height="1" fill="#9f7aea"/><rect x="10" y="8" width="1" height="1" fill="#9f7aea"/><rect x="11" y="8" width="1" height="1" fill="#9f7aea"/><rect x="2" y="9" width="1" height="1" fill="#4a3b8f"/><rect x="3" y="9" width="1" height="1" fill="#4a3b8f"/><rect x="4" y="9" width="1" height="1" fill="#4a3b8f"/><rect x="5" y="9" width="1" height="1" fill="#4a3b8f"/><rect x="11" y="9" width="1" height="1" fill="#9f7aea"/><rect x="12" y="9" width="1" height="1" fill="#9f7aea"/><rect x="11" y="10" width="1" height="1" fill="#9f7aea"/><rect x="13" y="10" width="1" height="1" fill="#9f7aea"/><rect x="14" y="11" width="1" height="1" fill="#9f7aea"/></svg>