<svg xmlns="http://www.w3.org/2000/svg" width="16" height="16" viewBox="0 0 16 16" shape-rendering="crispEdges"><rect x="1" y="5" width="1" height="1" fill="#8ea4bc"/><rect x="2" y="6" width="1" height="1" fill="#8ea4bc"/><rect x="4" y="6" width="1" height="1" fill="#8ea4bc"/><rect x="3" y="7" width="1" height="1" fill="#8ea4bc"/><rect x="4" y="7" width="1" height="1" fill="#8ea4bc"/><rect x="10" y="7" width="1" height="1" fill="#36404f"/><rect x="11" y="7" width="1" height="1" fill="#36404f"/><rect x="12" y="7" width="1" height="1" fill="#36404f"/><rect x="13" y="7" width="1" height="1" fill="#36404f"/><rect x="4" y="8" width="1" height="1" fill="#8ea4bc"/><rect x="5" y="8" width="1" height="1" fill="#8ea4bc"/><rect x="6" y="8" width="1" height="1" fill="#8ea4bc"/><rect x="7" y="8" width="1" height="1" fill="#8ea4bc"/><rect x="8" y="8" width="1" height="1" fill="#8ea4bc"/><rect x="9" y="8" width="1" height="1" fill="#8ea4bc"/><rect x="10" y="8" width="1" height="1" fill="#8ea4bc"/><rect x="11" y="8" width="1" height="1" fill="#8ea4bc"/><rect x="12" y="8" width="1" height="1" fill="#8ea4bc"/><rect x="13" y="8" width="1" height="1" fill="#8ea4bc"/><rect x="3" y="9" width="1" height="1" fill="#8ea4bc"/><rect x="4" y="9" width="1" height="1" fill="#8ea4bc"/><rect x="10" y="9" width="1" height="1" fill="#36404f"/><rect x="11" y="9" width="1" height="1" fill="#36404f"/><rect x="12" y="9" width="1" height="1" fill="#36404f"/><rect x="13" y="9" width="1" height="1" fill="#36404f"/><rect x="2" y="10" width="1" height="1" fill="#8ea4bc"/><rect x="4" y="10" width="1" height="1" fill="#8ea4bc"/><rect x="1" y="11" width="1" height="1" fill="#8ea4bc"/></svg>